<svg width="68" height="67" viewBox="0 0 68 67" fill="none" xmlns="http://www.w3.org/2000/svg">
<path d="M66.9196 36.464L51.6651 27.6248C51.6643 24.8642 51.6617 22.1793 51.6575 19.5038C51.6541 16.6056 51.6507 13.7074 51.6507 10.7025C51.6507 10.7008 51.6507 10.6991 51.6507 10.6965C51.6507 10.6776 51.6507 10.6587 51.6507 10.6389C51.6507 10.0291 51.2328 9.51745 50.6705 9.38329L34.7688 0.170924C34.3781 -0.0561168 33.8982 -0.0569688 33.5075 0.168352L17.4852 9.3661C17.4105 9.40738 17.3391 9.45638 17.2746 9.51142C17.2211 9.55614 17.1735 9.60517 17.1285 9.65677C16.9357 9.88123 16.8202 10.1745 16.8185 10.4953C16.8185 10.4953 16.8185 10.4961 16.8185 10.4979C16.8185 10.4987 16.8185 10.4996 16.8185 10.5004C16.8185 13.6377 16.827 16.5385 16.8355 19.4393C16.8423 22.1027 16.8499 24.7748 16.8508 27.6214L1.47227 36.4476C1.39498 36.4898 1.32278 36.5396 1.25653 36.5964C1.20642 36.6385 1.16056 36.685 1.11809 36.734C0.923588 36.9593 0.806386 37.2535 0.804688 37.576C0.804688 37.576 0.804688 37.5768 0.804688 37.5785C0.804688 37.5794 0.804688 37.5802 0.804688 37.5811V55.5784C0.804688 56.0428 1.05099 56.4719 1.45104 56.7007L17.7248 66.0404C17.915 66.1539 18.1358 66.2193 18.3728 66.2193C18.6098 66.2193 18.8298 66.1539 19.02 66.0412L34.5285 57.1643L49.991 66.0404C50.1813 66.1539 50.4021 66.2193 50.6391 66.2193C50.8761 66.2193 51.0961 66.1539 51.2863 66.0404L67.2585 56.8985C67.6586 56.6698 67.9057 56.2406 67.9057 55.7754V37.7178C67.9032 37.109 67.4827 36.5973 66.9196 36.464ZM49.1103 19.5064C49.1137 22.1862 49.1171 24.8659 49.1179 27.6317L35.6581 35.6005V20.6038L49.1043 12.9093C49.1052 15.1393 49.1077 17.3228 49.1103 19.5064ZM34.1344 2.77503L47.8006 10.6931L34.3849 18.3703L20.6754 10.5022L34.1344 2.77503ZM33.11 20.6038V35.5696L19.3988 27.6257C19.3972 24.7714 19.3895 22.1028 19.3818 19.4333C19.3759 17.2291 19.37 15.0249 19.3674 12.7158L33.11 20.6038ZM17.0971 62.7165L3.35105 54.8276V39.7956L17.0971 47.6844V62.7165ZM18.372 45.451L4.66076 37.5828L18.1214 29.8583L31.7434 37.7995L18.372 45.451ZM19.6451 47.6862L33.0727 40.002V55.0349L19.6451 62.7199V47.6862ZM49.3625 62.7165L35.6369 54.838V39.6245L49.3625 47.6775V62.7165ZM50.6442 45.4476L37.3339 37.6379L50.3996 29.8643L64.0513 37.7746L50.6442 45.4476ZM65.3551 55.0254L51.9114 62.7199V47.6862L65.3551 39.9926V55.0254Z" fill="currentColor"/>
</svg>
