<svg width="55" height="69" viewBox="0 0 55 69" fill="none" xmlns="http://www.w3.org/2000/svg">
<path d="M53.4641 9.26234C52.9349 8.73639 52.243 8.7364 51.8728 8.7364L51.1439 8.74359L50.7926 8.74C43.9612 8.58563 36.7224 5.93885 29.2786 0.872384L29.0158 0.69198C28.4549 0.305151 28.0133 0 27.373 0C26.7335 0 26.3 0.30067 25.75 0.681216L25.4547 0.884942C17.8844 6.03129 10.5301 8.67627 3.59387 8.74448L3.19829 8.74627C2.39177 8.74807 1.75414 8.74987 1.22399 9.28928C0.703776 9.81881 0.717332 10.4614 0.73088 11.0834C0.733589 11.2234 0.737191 11.3859 0.737191 11.5725V42.1957C0.737191 43.9584 0.824807 44.9035 1.65932 46.5577C6.72961 56.591 15.1109 64.1418 26.5682 69H27.6322C39.3406 64.0332 47.8429 56.6026 52.9032 46.9131C53.6845 45.4151 54.0123 44.5032 54.0123 42.7316V11.3993C54.015 10.4794 54.0159 9.81251 53.4641 9.26234ZM51.3038 42.7333C51.3038 43.9593 51.1322 44.462 50.5 45.6745C45.8135 54.6478 37.9425 61.5838 27.1011 66.2967C16.5216 61.6888 8.77796 54.6443 4.08248 45.3514C3.47917 44.155 3.44845 43.6075 3.44845 42.1966V11.5734C3.44845 11.5268 3.44845 11.481 3.44845 11.4379L3.62277 11.437C11.1045 11.3634 18.9646 8.56049 26.9855 3.1072L27.3007 2.89C27.3278 2.87115 27.3531 2.85409 27.3766 2.83704C27.4064 2.85768 27.438 2.88012 27.4723 2.90346L27.7496 3.09374C35.6332 8.45908 43.366 11.2638 50.7321 11.4307C50.8802 11.4343 51.0175 11.4352 51.1448 11.4352L51.3047 11.4334V42.7333H51.3038Z" fill="currentColor"/>
</svg>
