<svg width="78" height="74" viewBox="0 0 78 74" fill="none" xmlns="http://www.w3.org/2000/svg">
<path d="M38.9642 45.2287C38.2073 45.2287 37.6379 44.9027 36.7775 44.4092L31.8162 41.5746L2.4134 24.7786C1.31171 24.1497 0.584313 23.7345 0.601874 22.7796C0.619434 21.8549 1.36808 21.4612 2.02983 21.1138C2.22762 21.0096 2.46792 20.884 2.74611 20.7236C8.36548 17.4945 14.0579 14.1361 19.5635 10.8892C25.352 7.47472 31.3356 3.94537 37.2553 0.55319C37.7627 0.261898 38.2692 0 38.8736 0C39.4975 0 39.9319 0.26012 40.3921 0.534487L40.7082 0.720664C46.5134 4.04781 52.4137 7.50946 58.1199 10.8562C63.9547 14.2787 69.9881 17.8187 75.9189 21.2145L76.1574 21.349C76.6472 21.6251 77.3182 22.0019 77.3136 22.8589C77.309 23.7123 76.6324 24.0846 76.1833 24.3305L75.8894 24.4944C69.9687 27.8786 64.0758 31.2627 58.1828 34.6469C52.5662 37.8733 46.9487 41.0989 41.3062 44.3254C40.297 44.9045 39.7295 45.2287 38.9642 45.2287ZM4.4689 22.8455L38.1953 42.1118C38.4929 42.2828 38.8006 42.4592 38.966 42.5331C39.1454 42.4548 39.4873 42.2579 39.8219 42.0681C45.5319 38.8025 51.1475 35.5778 56.7632 32.3522C62.2809 29.1827 67.7976 26.0141 73.3394 22.8455C67.7736 19.6484 62.1385 16.3435 56.6781 13.1393C50.9784 9.79526 45.0845 6.33807 39.2905 3.01715L38.9309 2.80604C38.9014 2.78733 38.8727 2.7704 38.845 2.75347C38.7979 2.77931 38.7415 2.81049 38.6731 2.84968C32.7681 6.23295 26.792 9.75874 21.0118 13.1678C15.5986 16.3623 10.0042 19.6627 4.4689 22.8455Z" fill="currentColor"/>
<path d="M38.9505 62.0226C38.8248 62.0226 38.7 62.0066 38.5761 61.9728C38.4458 61.9371 38.3238 61.8845 38.2111 61.8159L9.44141 44.9281V28.7129C9.44141 27.9744 10.0625 27.3767 10.8278 27.3767C11.593 27.3767 12.2141 27.9744 12.2141 28.7129V43.4271L37.565 58.308V45.3263C37.565 44.5878 38.1861 43.9901 38.9514 43.9901C39.7166 43.9901 40.3377 44.5878 40.3377 45.3263V58.2964L65.7016 43.4066V28.6933C65.7016 27.9548 66.3227 27.3571 67.088 27.3571C67.8532 27.3571 68.4743 27.9548 68.4743 28.6933V44.9085L39.8137 61.7331C39.7564 61.7768 39.6963 61.816 39.6344 61.8498C39.4662 61.9416 39.2767 62.0004 39.0752 62.0173C39.0336 62.0208 38.9921 62.0226 38.9505 62.0226Z" fill="currentColor"/>
<path d="M63.5079 73.9381H50.5898V60.9787C50.5898 57.8208 53.4883 55.2509 57.0494 55.2509C60.6104 55.2509 63.507 57.8199 63.507 60.9787V73.9381H63.5079ZM53.3626 71.2657H60.7352V60.9787C60.7352 59.2942 59.0818 57.9233 57.0503 57.9233C55.0179 57.9233 53.3635 59.2942 53.3635 60.9787V71.2657H53.3626Z" fill="currentColor"/>
<path d="M56.9226 57.0378C56.1573 57.0378 55.5362 56.4401 55.5362 55.7016V34.4729L37.5506 23.8064C36.899 23.4198 36.6947 22.5967 37.0968 21.9687C37.4988 21.3389 38.3528 21.1456 39.0035 21.5313L58.3089 32.9799V55.7025C58.3089 56.4401 57.6888 57.0378 56.9226 57.0378Z" fill="currentColor"/>
</svg>
